<svg xmlns="http://www.w3.org/2000/svg" xmlns:xlink="http://www.w3.org/1999/xlink" viewBox="0 0 255.12 255.12"><defs><style>.cls-1{fill:url(#未命名的渐变_41);}.cls-2,.cls-4,.cls-6,.cls-7{fill:#f39800;}.cls-2,.cls-3,.cls-4,.cls-6,.cls-7,.cls-8{stroke:#fff;stroke-miterlimit:10;}.cls-2,.cls-3{stroke-width:5px;}.cls-3,.cls-8{fill:none;}.cls-4{stroke-width:3px;}.cls-5{fill:#fff;}.cls-7,.cls-8{stroke-width:2.5px;}</style><linearGradient id="未命名的渐变_41" x1="127.56" y1="255.12" x2="127.56" gradientUnits="userSpaceOnUse"><stop offset="0" stop-color="#4a546b"/><stop offset="1" stop-color="#486070"/></linearGradient></defs><title>资源 3</title><g id="图层_2" data-name="图层 2"><g id="dark-bg"><circle class="cls-1" cx="127.56" cy="127.56" r="127.56"/></g><g id="light-fg"><g id="logo"><circle class="cls-2" cx="127.11" cy="98.48" r="28.35"/><path class="cls-3" d="M170.67,126.83l41.48-28.35-34.54-23a14.17,14.17,0,0,0-15.89.11L92.75,123a14.19,14.19,0,0,1-16.24-.12L42.07,98.48,85.63,68.34"/><circle class="cls-4" cx="85.66" cy="68.34" r="7.09"/><circle class="cls-4" cx="170.6" cy="126.83" r="7.09"/></g><polygon class="cls-5" points="79.87 170.34 82.5 170.34 90.29 180.71 82.48 191.44 79.87 191.44 87.69 180.71 79.87 170.34"/><polygon class="cls-5" points="100.71 170.34 98.08 170.34 90.29 180.71 98.1 191.44 100.7 191.44 92.89 180.71 100.71 170.34"/><path class="cls-5" d="M113.76,156.74v34.7h-2.61v-32.2H106v-2.5Z"/><path class="cls-5" d="M147.66,191a18.41,18.41,0,0,1-5.58.82,19.49,19.49,0,0,1-10-2.55,18,18,0,0,1-6.78-6.9,19.44,19.44,0,0,1-2.42-9.57,20.07,20.07,0,0,1,2.5-9.94,18.64,18.64,0,0,1,16.53-9.61,19.55,19.55,0,0,1,10.31,2.86l-1.12,2.4a17.11,17.11,0,0,0-9.14-2.77,15.68,15.68,0,0,0-8.18,2.26,16.48,16.48,0,0,0-6,6.17,17,17,0,0,0-2.21,8.52,17.61,17.61,0,0,0,2,8.37,15.2,15.2,0,0,0,5.74,6,16.39,16.39,0,0,0,8.61,2.24,17,17,0,0,0,9.19-2.71l1.23,2.28A21.3,21.3,0,0,1,147.66,191Z"/><path class="cls-6" d="M163.11,186.05a3,3,0,0,1,2.21-1,3.21,3.21,0,0,1,2.27,1,3.17,3.17,0,0,1,0,4.64,3.21,3.21,0,0,1-2.27,1,3.23,3.23,0,0,1-3.18-3.28A3.16,3.16,0,0,1,163.11,186.05Z"/><path class="cls-5" d="M188,171.31v20.34h-1.29v-2.17a5.23,5.23,0,0,1-2,1.73,5.79,5.79,0,0,1-2.73.65,5.18,5.18,0,0,1-2.69-.71,5,5,0,0,1-1.91-2,5.78,5.78,0,0,1-.7-2.82,5.62,5.62,0,0,1,.73-2.89,5,5,0,0,1,2-1.93,5.75,5.75,0,0,1,2.76-.67,5.62,5.62,0,0,1,2.63.67,5.07,5.07,0,0,1,2,1.77v-12Zm-2.65,18.33a4.13,4.13,0,0,0,1.36-2.83v-1.34a4.22,4.22,0,0,0-1.54-2.55,4.42,4.42,0,0,0-2.85-1,4.3,4.3,0,0,0-2.19.56A4.22,4.22,0,0,0,178.5,184a4.49,4.49,0,0,0-.59,2.29,4.4,4.4,0,0,0,.59,2.23,4.46,4.46,0,0,0,1.59,1.61,4.1,4.1,0,0,0,2.18.61A4.33,4.33,0,0,0,185.3,189.64Z"/><path class="cls-5" d="M201.93,188l1,.57a6.24,6.24,0,0,1-1.22,1.6,5.53,5.53,0,0,1-1.66,1.12,5.7,5.7,0,0,1-2.92.49,5.14,5.14,0,0,1-2.6-1,5.46,5.46,0,0,1-1.77-2.28,5.25,5.25,0,0,1-.43-2.84,5.56,5.56,0,0,1,1.06-2.66,5.39,5.39,0,0,1,2.27-1.81,4.67,4.67,0,0,1,3.27-.27,6.12,6.12,0,0,1,2.88,1.9L195,189.56a4.28,4.28,0,0,0,4.64.71A4.6,4.6,0,0,0,201.93,188Zm-7.7-4.4a4.21,4.21,0,0,0-.79,2.08,4.53,4.53,0,0,0,.38,2.27,4.06,4.06,0,0,0,.5.86l5.85-5.85a4.46,4.46,0,0,0-2-1,3.51,3.51,0,0,0-2.2.25A4,4,0,0,0,194.23,183.6Z"/><path class="cls-5" d="M215.93,180.55l-5.19,10.86h-.16l-5.3-10.86h1.47l4,8.62,3.83-8.62Z"/><circle class="cls-7" cx="55.97" cy="174.09" r="17.35"/><line class="cls-8" x1="73.14" y1="157.55" x2="39.72" y2="190.97"/></g></g></svg>